0
SECTION
2
HEADER
9
$INSUNITS
70
4
9
$ACADVER
1
AC1014
9
$HANDSEED
5
FFFF
0
ENDSEC
0
SECTION
2
TABLES
0
TABLE
2
VPORT
5
8
100
AcDbSymbolTable
0
ENDTAB
0
TABLE
2
LTYPE
5
5
100
AcDbSymbolTable
0
LTYPE
5
14
100
AcDbSymbolTableRecord
100
AcDbLinetypeTableRecord
2
BYBLOCK
70
0
0
LTYPE
5
15
100
AcDbSymbolTableRecord
100
AcDbLinetypeTableRecord
2
BYLAYER
70
0
0
ENDTAB
0
TABLE
2
LAYER
5
2
100
AcDbSymbolTable
70
2
0
LAYER
5
50
100
AcDbSymbolTableRecord
100
AcDbLayerTableRecord
2
0
70
0
6
CONTINUOUS
0
ENDTAB
0
TABLE
2
STYLE
5
3
100
AcDbSymbolTable
70
1
0
STYLE
5
11
100
AcDbSymbolTableRecord
100
AcDbTextStyleTableRecord
2
STANDARD
70
0
0
ENDTAB
0
TABLE
2
VIEW
5
6
100
AcDbSymbolTable
70
0
0
ENDTAB
0
TABLE
2
UCS
5
7
100
AcDbSymbolTable
70
0
0
ENDTAB
0
TABLE
2
APPID
5
9
100
AcDbSymbolTable
70
2
0
APPID
5
12
100
AcDbSymbolTableRecord
100
AcDbRegAppTableRecord
2
ACAD
70
0
0
ENDTAB
0
TABLE
2
DIMSTYLE
5
A
100
AcDbSymbolTable
70
1
0
ENDTAB
0
TABLE
2
BLOCK_RECORD
5
1
100
AcDbSymbolTable
70
1
0
BLOCK_RECORD
5
1F
100
AcDbSymbolTableRecord
100
AcDbBlockTableRecord
2
*MODEL_SPACE
0
BLOCK_RECORD
5
1B
100
AcDbSymbolTableRecord
100
AcDbBlockTableRecord
2
*PAPER_SPACE
0
ENDTAB
0
ENDSEC
0
SECTION
2
BLOCKS
0
BLOCK
5
20
100
AcDbEntity
100
AcDbBlockBegin
2
*MODEL_SPACE
0
ENDBLK
5
21
100
AcDbEntity
100
AcDbBlockEnd
0
BLOCK
5
1C
100
AcDbEntity
100
AcDbBlockBegin
2
*PAPER_SPACE
0
ENDBLK
5
1D
100
AcDbEntity
100
AcDbBlockEnd
0
ENDSEC
0
SECTION
2
ENTITIES
0
LWPOLYLINE
5
100
100
AcDbEntity
8
0
100
AcDbPolyline
90
32
70
1
43
0.0
10
-63.743715644879856
20
49.899690723059066
42
-0.41421356237309503
10
-43.743715644879877
20
69.899690723059038
10
-34.389215644879854
20
69.899690723059038
10
-34.389215644879854
20
66.899690723059038
10
-13.098215644879856
20
66.899690723059038
10
-13.098215644879856
20
69.899690723059038
10
-3.7437156448798294
20
69.899690723059038
42
-0.41421356237309503
10
16.256284355120144
20
49.899690723059066
10
16.256284355120144
20
44.899690723059038
10
13.256284355120142
20
44.899690723059038
10
13.256284355120142
20
24.899690723059038
10
16.256284355120144
20
24.899690723059038
10
16.256284355120144
20
-15.100309276940962
10
13.256284355120142
20
-15.100309276940962
10
13.256284355120142
20
-35.100309276940962
10
16.256284355120144
20
-35.100309276940962
10
16.256284355120144
20
-40.10030927694099
42
-0.41421356237309503
10
-3.7437156448798294
20
-60.100309276940962
10
-13.098215644879856
20
-60.100309276940962
10
-13.098215644879856
20
-57.100309276940962
10
-34.389215644879854
20
-57.100309276940962
10
-34.389215644879854
20
-60.100309276940962
10
-43.743715644879877
20
-60.100309276940962
42
-0.41421356237309503
10
-63.743715644879856
20
-40.10030927694099
10
-63.743715644879856
20
-35.100309276940962
10
-60.743715644879856
20
-35.100309276940962
10
-60.743715644879856
20
-15.100309276940962
10
-63.743715644879856
20
-15.100309276940962
10
-63.743715644879856
20
24.899690723059038
10
-60.743715644879856
20
24.899690723059038
10
-60.743715644879856
20
44.899690723059038
10
-63.743715644879856
20
44.899690723059038
0
LWPOLYLINE
5
101
100
AcDbEntity
8
0
100
AcDbPolyline
90
4
70
1
43
0.0
10
-39.743715644879856
20
7.0496907230590358
10
-7.7437156448798561
20
7.0496907230590367
10
-7.7437156448798561
20
23.049690723059033
10
-39.743715644879856
20
23.049690723059033
0
LWPOLYLINE
5
102
100
AcDbEntity
8
0
100
AcDbPolyline
90
4
70
1
43
0.0
10
-39.743715644879856
20
-18.250309276940968
10
-7.7437156448798543
20
-18.250309276940968
10
-7.7437156448798516
20
-2.2503092769409658
10
-39.743715644879856
20
-2.2503092769409649
0
LWPOLYLINE
5
103
100
AcDbEntity
8
0
100
AcDbPolyline
90
4
70
1
43
0.0
10
-39.743715644879856
20
-43.550309276940958
10
-7.743715644879857
20
-43.550309276940958
10
-7.7437156448798561
20
-27.550309276940972
10
-39.743715644879863
20
-27.550309276940965
0
LWPOLYLINE
5
104
100
AcDbEntity
8
0
100
AcDbPolyline
90
4
70
1
43
0.0
10
2.2562843551201439
20
53.349690723059034
10
-49.743715644879849
20
53.349690723059034
10
-49.743715644879849
20
32.349690723059027
10
2.2562843551201466
20
32.349690723059027
0
ENDSEC
0
SECTION
2
OBJECTS
0
DICTIONARY
5
C
100
AcDbDictionary
3
ACAD_GROUP
350
D
3
ACAD_MLINESTYLE
350
17
0
DICTIONARY
5
D
100
AcDbDictionary
0
DICTIONARY
5
1A
330
C
100
AcDbDictionary
0
DICTIONARY
5
17
100
AcDbDictionary
0
ENDSEC
0
EOF
