0
SECTION
2
HEADER
9
$INSUNITS
70
4
9
$ACADVER
1
AC1014
9
$HANDSEED
5
FFFF
0
ENDSEC
0
SECTION
2
TABLES
0
TABLE
2
VPORT
5
8
100
AcDbSymbolTable
0
ENDTAB
0
TABLE
2
LTYPE
5
5
100
AcDbSymbolTable
0
LTYPE
5
14
100
AcDbSymbolTableRecord
100
AcDbLinetypeTableRecord
2
BYBLOCK
70
0
0
LTYPE
5
15
100
AcDbSymbolTableRecord
100
AcDbLinetypeTableRecord
2
BYLAYER
70
0
0
ENDTAB
0
TABLE
2
LAYER
5
2
100
AcDbSymbolTable
70
2
0
LAYER
5
50
100
AcDbSymbolTableRecord
100
AcDbLayerTableRecord
2
0
70
0
6
CONTINUOUS
0
ENDTAB
0
TABLE
2
STYLE
5
3
100
AcDbSymbolTable
70
1
0
STYLE
5
11
100
AcDbSymbolTableRecord
100
AcDbTextStyleTableRecord
2
STANDARD
70
0
0
ENDTAB
0
TABLE
2
VIEW
5
6
100
AcDbSymbolTable
70
0
0
ENDTAB
0
TABLE
2
UCS
5
7
100
AcDbSymbolTable
70
0
0
ENDTAB
0
TABLE
2
APPID
5
9
100
AcDbSymbolTable
70
2
0
APPID
5
12
100
AcDbSymbolTableRecord
100
AcDbRegAppTableRecord
2
ACAD
70
0
0
ENDTAB
0
TABLE
2
DIMSTYLE
5
A
100
AcDbSymbolTable
70
1
0
ENDTAB
0
TABLE
2
BLOCK_RECORD
5
1
100
AcDbSymbolTable
70
1
0
BLOCK_RECORD
5
1F
100
AcDbSymbolTableRecord
100
AcDbBlockTableRecord
2
*MODEL_SPACE
0
BLOCK_RECORD
5
1B
100
AcDbSymbolTableRecord
100
AcDbBlockTableRecord
2
*PAPER_SPACE
0
ENDTAB
0
ENDSEC
0
SECTION
2
BLOCKS
0
BLOCK
5
20
100
AcDbEntity
100
AcDbBlockBegin
2
*MODEL_SPACE
0
ENDBLK
5
21
100
AcDbEntity
100
AcDbBlockEnd
0
BLOCK
5
1C
100
AcDbEntity
100
AcDbBlockBegin
2
*PAPER_SPACE
0
ENDBLK
5
1D
100
AcDbEntity
100
AcDbBlockEnd
0
ENDSEC
0
SECTION
2
ENTITIES
0
LINE
5
100
100
AcDbEntity
8
0
100
AcDbLine
10
285.35427652249831
20
25.000000000000004
30
0
11
285.35427652249831
21
5
31
0
0
LINE
5
101
100
AcDbEntity
8
0
100
AcDbLine
10
104
20
25.000000000000004
30
0
11
104
21
28.000000000000004
31
0
0
LINE
5
102
100
AcDbEntity
8
0
100
AcDbLine
10
104
20
28.000000000000004
30
0
11
93.354276522498267
21
28.000000000000004
31
0
0
LINE
5
103
100
AcDbEntity
8
0
100
AcDbLine
10
275.35427652249831
20
25.000000000000004
30
0
11
275.35427652249831
21
28.000000000000007
31
0
0
LINE
5
104
100
AcDbEntity
8
0
100
AcDbLine
10
275.35427652249831
20
28.000000000000007
30
0
11
285.35427652249831
21
28.000000000000007
31
0
0
LINE
5
105
100
AcDbEntity
8
0
100
AcDbLine
10
285.35427652249831
20
28.000000000000007
30
0
11
285.35427652249831
21
25.000000000000004
31
0
0
LINE
5
106
100
AcDbEntity
8
0
100
AcDbLine
10
170
20
25.000000000000004
30
0
11
170
21
28
31
0
0
LINE
5
107
100
AcDbEntity
8
0
100
AcDbLine
10
170
20
28
30
0
11
150.00000000000003
21
28
31
0
0
LINE
5
108
100
AcDbEntity
8
0
100
AcDbLine
10
150.00000000000003
20
28
30
0
11
150.00000000000003
21
25
31
0
0
LINE
5
109
100
AcDbEntity
8
0
100
AcDbLine
10
230
20
25.000000000000004
30
0
11
230
21
28.000000000000004
31
0
0
LINE
5
110
100
AcDbEntity
8
0
100
AcDbLine
10
230
20
28.000000000000004
30
0
11
210
21
28.000000000000004
31
0
0
LINE
5
111
100
AcDbEntity
8
0
100
AcDbLine
10
210
20
28.000000000000004
30
0
11
210
21
25.000000000000004
31
0
0
LINE
5
112
100
AcDbEntity
8
0
100
AcDbLine
10
230
20
25.000000000000004
30
0
11
275.35427652249831
21
25.000000000000004
31
0
0
LINE
5
113
100
AcDbEntity
8
0
100
AcDbLine
10
104
20
25.000000000000004
30
0
11
150.00000000000003
21
25
31
0
0
LINE
5
114
100
AcDbEntity
8
0
100
AcDbLine
10
170
20
25.000000000000004
30
0
11
210
21
25.000000000000004
31
0
0
LINE
5
115
100
AcDbEntity
8
0
100
AcDbLine
10
93.354276522498267
20
52.281320905116146
30
0
11
93.354276522498267
21
-40
31
0
0
LINE
5
116
100
AcDbEntity
8
0
100
AcDbLine
10
304.33378128362108
20
5
30
0
11
-120
21
5.0000000000000018
31
0
0
LINE
5
117
100
AcDbEntity
8
0
100
AcDbLine
10
170.00000000000003
20
-15.000000000000014
30
0
11
210.00000000000003
21
-15.00000000000002
31
0
0
LINE
5
118
100
AcDbEntity
8
0
100
AcDbLine
10
210.00000000000003
20
-18.000000000000021
30
0
11
210.00000000000003
21
-15.00000000000002
31
0
0
LINE
5
119
100
AcDbEntity
8
0
100
AcDbLine
10
104
20
-15.000000000000004
30
0
11
150.00000000000003
21
-15.000000000000009
31
0
0
LINE
5
120
100
AcDbEntity
8
0
100
AcDbLine
10
230
20
-15.00000000000002
30
0
11
275.35427652249831
21
-15.000000000000004
31
0
0
LINE
5
121
100
AcDbEntity
8
0
100
AcDbLine
10
230.00000000000003
20
-18.000000000000021
30
0
11
210.00000000000003
21
-18.000000000000021
31
0
0
LINE
5
122
100
AcDbEntity
8
0
100
AcDbLine
10
170.00000000000003
20
-15.000000000000014
30
0
11
170.00000000000003
21
-18.000000000000007
31
0
0
LINE
5
123
100
AcDbEntity
8
0
100
AcDbLine
10
230
20
-15.00000000000002
30
0
11
230.00000000000003
21
-18.000000000000021
31
0
0
LINE
5
124
100
AcDbEntity
8
0
100
AcDbLine
10
285.35427652249831
20
-15.000000000000004
30
0
11
285.35427652249831
21
5
31
0
0
LINE
5
125
100
AcDbEntity
8
0
100
AcDbLine
10
104
20
-15.000000000000004
30
0
11
104
21
-18
31
0
0
LINE
5
126
100
AcDbEntity
8
0
100
AcDbLine
10
275.35427652249831
20
-15.000000000000004
30
0
11
275.35427652249831
21
-18.000000000000007
31
0
0
LINE
5
127
100
AcDbEntity
8
0
100
AcDbLine
10
104
20
-18
30
0
11
93.354276522498267
21
-18.000000000000004
31
0
0
LINE
5
128
100
AcDbEntity
8
0
100
AcDbLine
10
170.00000000000003
20
-18.000000000000007
30
0
11
150.00000000000003
21
-18.000000000000004
31
0
0
LINE
5
129
100
AcDbEntity
8
0
100
AcDbLine
10
275.35427652249831
20
-18.000000000000007
30
0
11
285.35427652249831
21
-18.000000000000007
31
0
0
LINE
5
130
100
AcDbEntity
8
0
100
AcDbLine
10
285.35427652249831
20
-18.000000000000007
30
0
11
285.35427652249831
21
-15.000000000000004
31
0
0
LINE
5
131
100
AcDbEntity
8
0
100
AcDbLine
10
150.00000000000003
20
-18.000000000000004
30
0
11
150.00000000000003
21
-15.000000000000009
31
0
0
LINE
5
132
100
AcDbEntity
8
0
100
AcDbLine
10
36.70855304499652
20
28
30
0
11
36.70855304499652
21
25.000000000000004
31
0
0
LINE
5
133
100
AcDbEntity
8
0
100
AcDbLine
10
-43.29144695500348
20
-18.000000000000039
30
0
11
-23.291446955003483
21
-18.000000000000036
31
0
0
LINE
5
134
100
AcDbEntity
8
0
100
AcDbLine
10
36.70855304499652
20
-18.000000000000011
30
0
11
36.70855304499652
21
-15.000000000000016
31
0
0
LINE
5
135
100
AcDbEntity
8
0
100
AcDbLine
10
-43.29144695500348
20
-15.000000000000037
30
0
11
-43.29144695500348
21
-18.000000000000039
31
0
0
LINE
5
136
100
AcDbEntity
8
0
100
AcDbLine
10
-23.291446955003483
20
28.000000000000004
30
0
11
-23.291446955003483
21
25.000000000000004
31
0
0
LINE
5
137
100
AcDbEntity
8
0
100
AcDbLine
10
-43.29144695500348
20
28.000000000000004
30
0
11
-23.291446955003483
21
28.000000000000004
31
0
0
LINE
5
138
100
AcDbEntity
8
0
100
AcDbLine
10
-43.29144695500348
20
25.000000000000004
30
0
11
-43.29144695500348
21
28.000000000000004
31
0
0
LINE
5
139
100
AcDbEntity
8
0
100
AcDbLine
10
16.708553044996517
20
-15.000000000000021
30
0
11
-23.291446955003483
21
-15.000000000000034
31
0
0
LINE
5
140
100
AcDbEntity
8
0
100
AcDbLine
10
-23.291446955003483
20
-18.000000000000036
30
0
11
-23.291446955003483
21
-15.000000000000034
31
0
0
LINE
5
141
100
AcDbEntity
8
0
100
AcDbLine
10
16.708553044996517
20
-15.000000000000021
30
0
11
16.708553044996517
21
-18.000000000000014
31
0
0
LINE
5
142
100
AcDbEntity
8
0
100
AcDbLine
10
-98.645723477501761
20
-15
30
0
11
-98.645723477501761
21
5
31
0
0
LINE
5
143
100
AcDbEntity
8
0
100
AcDbLine
10
16.708553044996517
20
25.000000000000004
30
0
11
-23.291446955003483
21
25.000000000000004
31
0
0
LINE
5
144
100
AcDbEntity
8
0
100
AcDbLine
10
16.708553044996517
20
-18.000000000000014
30
0
11
36.70855304499652
21
-18.000000000000011
31
0
0
LINE
5
145
100
AcDbEntity
8
0
100
AcDbLine
10
-98.645723477501761
20
-18.000000000000007
30
0
11
-98.645723477501761
21
-15
31
0
0
LINE
5
146
100
AcDbEntity
8
0
100
AcDbLine
10
-98.645723477501761
20
28.000000000000007
30
0
11
-98.645723477501761
21
25.000000000000004
31
0
0
LINE
5
147
100
AcDbEntity
8
0
100
AcDbLine
10
-88.645723477501761
20
-15
30
0
11
-88.645723477501761
21
-18.000000000000007
31
0
0
LINE
5
148
100
AcDbEntity
8
0
100
AcDbLine
10
82.708553044996535
20
-15.000000000000004
30
0
11
82.708553044996535
21
-18.000000000000004
31
0
0
LINE
5
149
100
AcDbEntity
8
0
100
AcDbLine
10
-88.645723477501761
20
28.000000000000007
30
0
11
-98.645723477501761
21
28.000000000000007
31
0
0
LINE
5
150
100
AcDbEntity
8
0
100
AcDbLine
10
82.708553044996535
20
-15.000000000000004
30
0
11
36.70855304499652
21
-15.000000000000016
31
0
0
LINE
5
151
100
AcDbEntity
8
0
100
AcDbLine
10
16.708553044996517
20
25.000000000000004
30
0
11
16.708553044996517
21
28
31
0
0
LINE
5
152
100
AcDbEntity
8
0
100
AcDbLine
10
16.708553044996517
20
28
30
0
11
36.70855304499652
21
28
31
0
0
LINE
5
153
100
AcDbEntity
8
0
100
AcDbLine
10
-98.645723477501761
20
25.000000000000004
30
0
11
-98.645723477501761
21
5
31
0
0
LINE
5
154
100
AcDbEntity
8
0
100
AcDbLine
10
-88.645723477501761
20
25.000000000000004
30
0
11
-88.645723477501761
21
28.000000000000007
31
0
0
LINE
5
155
100
AcDbEntity
8
0
100
AcDbLine
10
82.708553044996535
20
-18.000000000000004
30
0
11
93.354276522498267
21
-18.000000000000007
31
0
0
LINE
5
156
100
AcDbEntity
8
0
100
AcDbLine
10
-117.62522823862454
20
5
30
0
11
306.70855304499651
21
5
31
0
0
LINE
5
157
100
AcDbEntity
8
0
100
AcDbLine
10
-43.29144695500348
20
-15.000000000000037
30
0
11
-88.645723477501761
21
-15
31
0
0
LINE
5
158
100
AcDbEntity
8
0
100
AcDbLine
10
-88.645723477501761
20
-18.000000000000007
30
0
11
-98.645723477501761
21
-18.000000000000007
31
0
0
LINE
5
159
100
AcDbEntity
8
0
100
AcDbLine
10
82.708553044996535
20
25.000000000000004
30
0
11
36.70855304499652
21
25.000000000000004
31
0
0
LINE
5
160
100
AcDbEntity
8
0
100
AcDbLine
10
-43.29144695500348
20
25.000000000000004
30
0
11
-88.645723477501761
21
25.000000000000004
31
0
0
LINE
5
161
100
AcDbEntity
8
0
100
AcDbLine
10
82.708553044996535
20
25.000000000000004
30
0
11
82.708553044996535
21
28
31
0
0
LINE
5
162
100
AcDbEntity
8
0
100
AcDbLine
10
82.708553044996535
20
28
30
0
11
93.354276522498267
21
28.000000000000004
31
0
0
LINE
5
163
100
AcDbEntity
8
0
100
AcDbLine
10
110
20
25
30
0
11
110
21
10
31
0
0
LINE
5
164
100
AcDbEntity
8
0
100
AcDbLine
10
111
20
5.0000000000000009
30
0
11
111
21
20
31
0
0
LINE
5
165
100
AcDbEntity
8
0
100
AcDbLine
10
112
20
25
30
0
11
112
21
10
31
0
0
LINE
5
166
100
AcDbEntity
8
0
100
AcDbLine
10
112.99999999999999
20
5
30
0
11
112.99999999999999
21
20
31
0
0
LINE
5
167
100
AcDbEntity
8
0
100
AcDbLine
10
113.99999999999999
20
25
30
0
11
113.99999999999999
21
10
31
0
0
LINE
5
168
100
AcDbEntity
8
0
100
AcDbLine
10
117.99999999999997
20
25
30
0
11
117.99999999999997
21
10
31
0
0
LINE
5
169
100
AcDbEntity
8
0
100
AcDbLine
10
116.99999999999997
20
5
30
0
11
116.99999999999997
21
20
31
0
0
LINE
5
170
100
AcDbEntity
8
0
100
AcDbLine
10
115.99999999999997
20
25
30
0
11
115.99999999999997
21
10
31
0
0
LINE
5
171
100
AcDbEntity
8
0
100
AcDbLine
10
114.99999999999999
20
5
30
0
11
114.99999999999999
21
20
31
0
0
LINE
5
172
100
AcDbEntity
8
0
100
AcDbLine
10
125.99999999999994
20
25
30
0
11
125.99999999999994
21
10
31
0
0
LINE
5
173
100
AcDbEntity
8
0
100
AcDbLine
10
124.99999999999994
20
5
30
0
11
124.99999999999994
21
20
31
0
0
LINE
5
174
100
AcDbEntity
8
0
100
AcDbLine
10
123.99999999999994
20
25
30
0
11
123.99999999999994
21
10
31
0
0
LINE
5
175
100
AcDbEntity
8
0
100
AcDbLine
10
122.99999999999996
20
5
30
0
11
122.99999999999996
21
20
31
0
0
LINE
5
176
100
AcDbEntity
8
0
100
AcDbLine
10
121.99999999999996
20
25
30
0
11
121.99999999999996
21
10
31
0
0
LINE
5
177
100
AcDbEntity
8
0
100
AcDbLine
10
120.99999999999996
20
5
30
0
11
120.99999999999996
21
20
31
0
0
LINE
5
178
100
AcDbEntity
8
0
100
AcDbLine
10
119.99999999999997
20
25
30
0
11
119.99999999999997
21
10
31
0
0
LINE
5
179
100
AcDbEntity
8
0
100
AcDbLine
10
118.99999999999997
20
5
30
0
11
118.99999999999997
21
20
31
0
0
LINE
5
180
100
AcDbEntity
8
0
100
AcDbLine
10
141.99999999999989
20
25
30
0
11
141.99999999999989
21
10
31
0
0
LINE
5
181
100
AcDbEntity
8
0
100
AcDbLine
10
140.99999999999989
20
5
30
0
11
140.99999999999989
21
20
31
0
0
LINE
5
182
100
AcDbEntity
8
0
100
AcDbLine
10
139.99999999999989
20
25
30
0
11
139.99999999999989
21
10
31
0
0
LINE
5
183
100
AcDbEntity
8
0
100
AcDbLine
10
138.99999999999989
20
5
30
0
11
138.99999999999989
21
20
31
0
0
LINE
5
184
100
AcDbEntity
8
0
100
AcDbLine
10
137.99999999999989
20
25
30
0
11
137.99999999999989
21
10
31
0
0
LINE
5
185
100
AcDbEntity
8
0
100
AcDbLine
10
135.99999999999991
20
25
30
0
11
135.99999999999991
21
10
31
0
0
LINE
5
186
100
AcDbEntity
8
0
100
AcDbLine
10
136.99999999999991
20
5
30
0
11
136.99999999999991
21
20
31
0
0
LINE
5
187
100
AcDbEntity
8
0
100
AcDbLine
10
134.99999999999991
20
5
30
0
11
134.99999999999991
21
20
31
0
0
LINE
5
188
100
AcDbEntity
8
0
100
AcDbLine
10
133.99999999999991
20
25
30
0
11
133.99999999999991
21
10
31
0
0
LINE
5
189
100
AcDbEntity
8
0
100
AcDbLine
10
132.99999999999991
20
5
30
0
11
132.99999999999991
21
20
31
0
0
LINE
5
190
100
AcDbEntity
8
0
100
AcDbLine
10
131.99999999999991
20
25
30
0
11
131.99999999999991
21
10
31
0
0
LINE
5
191
100
AcDbEntity
8
0
100
AcDbLine
10
130.99999999999991
20
5
30
0
11
130.99999999999991
21
20
31
0
0
LINE
5
192
100
AcDbEntity
8
0
100
AcDbLine
10
129.99999999999994
20
25
30
0
11
129.99999999999994
21
10
31
0
0
LINE
5
193
100
AcDbEntity
8
0
100
AcDbLine
10
128.99999999999994
20
5
30
0
11
128.99999999999994
21
20
31
0
0
LINE
5
194
100
AcDbEntity
8
0
100
AcDbLine
10
127.99999999999994
20
25
30
0
11
127.99999999999994
21
10
31
0
0
LINE
5
195
100
AcDbEntity
8
0
100
AcDbLine
10
126.99999999999994
20
5
30
0
11
126.99999999999994
21
20
31
0
0
LINE
5
196
100
AcDbEntity
8
0
100
AcDbLine
10
142.99999999999989
20
5
30
0
11
142.99999999999989
21
20
31
0
0
LINE
5
197
100
AcDbEntity
8
0
100
AcDbLine
10
143.99999999999989
20
25
30
0
11
143.99999999999989
21
10
31
0
0
LINE
5
198
100
AcDbEntity
8
0
100
AcDbLine
10
144.99999999999989
20
5
30
0
11
144.99999999999989
21
20
31
0
0
LINE
5
199
100
AcDbEntity
8
0
100
AcDbLine
10
145.99999999999989
20
25
30
0
11
145.99999999999989
21
10
31
0
0
LINE
5
200
100
AcDbEntity
8
0
100
AcDbLine
10
146.99999999999986
20
5
30
0
11
146.99999999999986
21
20
31
0
0
LINE
5
201
100
AcDbEntity
8
0
100
AcDbLine
10
112.99999999999997
20
5.0000000000000018
30
0
11
112.99999999999997
21
-10
31
0
0
LINE
5
202
100
AcDbEntity
8
0
100
AcDbLine
10
116.99999999999996
20
5.0000000000000018
30
0
11
116.99999999999996
21
-10
31
0
0
LINE
5
203
100
AcDbEntity
8
0
100
AcDbLine
10
112
20
-15
30
0
11
112
21
2.2204460492503131e-15
31
0
0
LINE
5
204
100
AcDbEntity
8
0
100
AcDbLine
10
113.99999999999999
20
-15
30
0
11
113.99999999999999
21
2.2204460492503131e-15
31
0
0
LINE
5
205
100
AcDbEntity
8
0
100
AcDbLine
10
118.99999999999999
20
5.0000000000000018
30
0
11
118.99999999999999
21
-10
31
0
0
LINE
5
206
100
AcDbEntity
8
0
100
AcDbLine
10
117.99999999999997
20
-15
30
0
11
117.99999999999997
21
2.2204460492503131e-15
31
0
0
LINE
5
207
100
AcDbEntity
8
0
100
AcDbLine
10
123.99999999999994
20
-15
30
0
11
123.99999999999994
21
2.2204460492503131e-15
31
0
0
LINE
5
208
100
AcDbEntity
8
0
100
AcDbLine
10
122.99999999999997
20
5.0000000000000018
30
0
11
122.99999999999997
21
-10
31
0
0
LINE
5
209
100
AcDbEntity
8
0
100
AcDbLine
10
115.99999999999997
20
-15
30
0
11
115.99999999999997
21
2.2204460492503131e-15
31
0
0
LINE
5
210
100
AcDbEntity
8
0
100
AcDbLine
10
121.99999999999996
20
-15
30
0
11
121.99999999999996
21
2.2204460492503131e-15
31
0
0
LINE
5
211
100
AcDbEntity
8
0
100
AcDbLine
10
110
20
-15
30
0
11
110
21
2.2204460492503131e-15
31
0
0
LINE
5
212
100
AcDbEntity
8
0
100
AcDbLine
10
120.99999999999994
20
5.0000000000000018
30
0
11
120.99999999999994
21
-10
31
0
0
LINE
5
213
100
AcDbEntity
8
0
100
AcDbLine
10
125.99999999999994
20
-15
30
0
11
125.99999999999994
21
2.2204460492503131e-15
31
0
0
LINE
5
214
100
AcDbEntity
8
0
100
AcDbLine
10
115
20
5.0000000000000018
30
0
11
115
21
-10
31
0
0
LINE
5
215
100
AcDbEntity
8
0
100
AcDbLine
10
124.99999999999993
20
5.0000000000000018
30
0
11
124.99999999999993
21
-10
31
0
0
LINE
5
216
100
AcDbEntity
8
0
100
AcDbLine
10
119.99999999999997
20
-15
30
0
11
119.99999999999997
21
2.2204460492503131e-15
31
0
0
LINE
5
217
100
AcDbEntity
8
0
100
AcDbLine
10
111.00000000000001
20
5.0000000000000009
30
0
11
111.00000000000001
21
-10
31
0
0
LINE
5
218
100
AcDbEntity
8
0
100
AcDbLine
10
144.99999999999989
20
5.0000000000000018
30
0
11
144.99999999999989
21
-10
31
0
0
LINE
5
219
100
AcDbEntity
8
0
100
AcDbLine
10
142.99999999999989
20
5.0000000000000018
30
0
11
142.99999999999989
21
-10
31
0
0
LINE
5
220
100
AcDbEntity
8
0
100
AcDbLine
10
138.99999999999991
20
5.0000000000000018
30
0
11
138.99999999999991
21
-10
31
0
0
LINE
5
221
100
AcDbEntity
8
0
100
AcDbLine
10
145.99999999999989
20
-15
30
0
11
145.99999999999989
21
1.1102230246251565e-15
31
0
0
LINE
5
222
100
AcDbEntity
8
0
100
AcDbLine
10
139.99999999999989
20
-15
30
0
11
139.99999999999989
21
2.2204460492503131e-15
31
0
0
LINE
5
223
100
AcDbEntity
8
0
100
AcDbLine
10
140.99999999999989
20
5.0000000000000018
30
0
11
140.99999999999989
21
-10
31
0
0
LINE
5
224
100
AcDbEntity
8
0
100
AcDbLine
10
141.99999999999989
20
-15
30
0
11
141.99999999999989
21
2.2204460492503131e-15
31
0
0
LINE
5
225
100
AcDbEntity
8
0
100
AcDbLine
10
128.99999999999991
20
5.0000000000000018
30
0
11
128.99999999999991
21
-10
31
0
0
LINE
5
226
100
AcDbEntity
8
0
100
AcDbLine
10
126.99999999999996
20
5.0000000000000018
30
0
11
126.99999999999996
21
-10
31
0
0
LINE
5
227
100
AcDbEntity
8
0
100
AcDbLine
10
129.99999999999994
20
-15
30
0
11
129.99999999999994
21
2.2204460492503131e-15
31
0
0
LINE
5
228
100
AcDbEntity
8
0
100
AcDbLine
10
127.99999999999994
20
-15
30
0
11
127.99999999999994
21
2.2204460492503131e-15
31
0
0
LINE
5
229
100
AcDbEntity
8
0
100
AcDbLine
10
132.99999999999989
20
5.0000000000000018
30
0
11
132.99999999999989
21
-10
31
0
0
LINE
5
230
100
AcDbEntity
8
0
100
AcDbLine
10
133.99999999999991
20
-15
30
0
11
133.99999999999991
21
2.2204460492503131e-15
31
0
0
LINE
5
231
100
AcDbEntity
8
0
100
AcDbLine
10
130.99999999999994
20
5.0000000000000018
30
0
11
130.99999999999994
21
-10
31
0
0
LINE
5
232
100
AcDbEntity
8
0
100
AcDbLine
10
131.99999999999991
20
-15
30
0
11
131.99999999999991
21
2.2204460492503131e-15
31
0
0
LINE
5
233
100
AcDbEntity
8
0
100
AcDbLine
10
134.99999999999994
20
5.0000000000000018
30
0
11
134.99999999999994
21
-10
31
0
0
LINE
5
234
100
AcDbEntity
8
0
100
AcDbLine
10
143.99999999999989
20
-15
30
0
11
143.99999999999989
21
2.2204460492503131e-15
31
0
0
LINE
5
235
100
AcDbEntity
8
0
100
AcDbLine
10
136.99999999999989
20
5.0000000000000018
30
0
11
136.99999999999989
21
-10
31
0
0
LINE
5
236
100
AcDbEntity
8
0
100
AcDbLine
10
135.99999999999991
20
-15
30
0
11
135.99999999999991
21
2.2204460492503131e-15
31
0
0
LINE
5
237
100
AcDbEntity
8
0
100
AcDbLine
10
137.99999999999989
20
-15
30
0
11
137.99999999999989
21
2.2204460492503131e-15
31
0
0
LINE
5
238
100
AcDbEntity
8
0
100
AcDbLine
10
146.99999999999986
20
5.0000000000000009
30
0
11
146.99999999999986
21
-10
31
0
0
LINE
5
239
100
AcDbEntity
8
0
100
AcDbLine
10
54.708553044996613
20
25
30
0
11
54.708553044996613
21
10
31
0
0
LINE
5
240
100
AcDbEntity
8
0
100
AcDbLine
10
52.70855304499662
20
-15
30
0
11
52.70855304499662
21
0
31
0
0
LINE
5
241
100
AcDbEntity
8
0
100
AcDbLine
10
55.708553044996592
20
5
30
0
11
55.708553044996592
21
-10
31
0
0
LINE
5
242
100
AcDbEntity
8
0
100
AcDbLine
10
50.708553044996627
20
25
30
0
11
50.708553044996627
21
10
31
0
0
LINE
5
243
100
AcDbEntity
8
0
100
AcDbLine
10
59.708553044996592
20
5
30
0
11
59.708553044996592
21
20
31
0
0
LINE
5
244
100
AcDbEntity
8
0
100
AcDbLine
10
43.708553044996648
20
5
30
0
11
43.708553044996648
21
20
31
0
0
LINE
5
245
100
AcDbEntity
8
0
100
AcDbLine
10
57.708553044996606
20
5
30
0
11
57.708553044996606
21
20
31
0
0
LINE
5
246
100
AcDbEntity
8
0
100
AcDbLine
10
51.70855304499662
20
5
30
0
11
51.70855304499662
21
20
31
0
0
LINE
5
247
100
AcDbEntity
8
0
100
AcDbLine
10
53.70855304499662
20
5
30
0
11
53.70855304499662
21
20
31
0
0
LINE
5
248
100
AcDbEntity
8
0
100
AcDbLine
10
58.708553044996599
20
-15
30
0
11
58.708553044996599
21
0
31
0
0
LINE
5
249
100
AcDbEntity
8
0
100
AcDbLine
10
56.708553044996606
20
-15
30
0
11
56.708553044996606
21
0
31
0
0
LINE
5
250
100
AcDbEntity
8
0
100
AcDbLine
10
52.70855304499662
20
25
30
0
11
52.70855304499662
21
10
31
0
0
LINE
5
251
100
AcDbEntity
8
0
100
AcDbLine
10
42.708553044996656
20
25
30
0
11
42.708553044996656
21
10
31
0
0
LINE
5
252
100
AcDbEntity
8
0
100
AcDbLine
10
49.708553044996634
20
5
30
0
11
49.708553044996634
21
20
31
0
0
LINE
5
253
100
AcDbEntity
8
0
100
AcDbLine
10
58.708553044996599
20
25
30
0
11
58.708553044996599
21
10
31
0
0
LINE
5
254
100
AcDbEntity
8
0
100
AcDbLine
10
56.708553044996606
20
25
30
0
11
56.708553044996606
21
10
31
0
0
LINE
5
255
100
AcDbEntity
8
0
100
AcDbLine
10
55.708553044996606
20
5
30
0
11
55.708553044996606
21
20
31
0
0
LINE
5
256
100
AcDbEntity
8
0
100
AcDbLine
10
53.708553044996634
20
5
30
0
11
53.708553044996634
21
-10
31
0
0
LINE
5
257
100
AcDbEntity
8
0
100
AcDbLine
10
68.708553044996563
20
-15
30
0
11
68.708553044996563
21
0
31
0
0
LINE
5
258
100
AcDbEntity
8
0
100
AcDbLine
10
70.708553044996563
20
-15
30
0
11
70.708553044996563
21
0
31
0
0
LINE
5
259
100
AcDbEntity
8
0
100
AcDbLine
10
69.708553044996563
20
5
30
0
11
69.708553044996563
21
20
31
0
0
LINE
5
260
100
AcDbEntity
8
0
100
AcDbLine
10
60.708553044996592
20
-15
30
0
11
60.708553044996592
21
0
31
0
0
LINE
5
261
100
AcDbEntity
8
0
100
AcDbLine
10
41.708553044996663
20
5
30
0
11
41.708553044996663
21
-10
31
0
0
LINE
5
262
100
AcDbEntity
8
0
100
AcDbLine
10
50.708553044996627
20
-15
30
0
11
50.708553044996627
21
0
31
0
0
LINE
5
263
100
AcDbEntity
8
0
100
AcDbLine
10
46.708553044996641
20
25
30
0
11
46.708553044996641
21
10
31
0
0
LINE
5
264
100
AcDbEntity
8
0
100
AcDbLine
10
44.708553044996648
20
-15
30
0
11
44.708553044996648
21
0
31
0
0
LINE
5
265
100
AcDbEntity
8
0
100
AcDbLine
10
48.708553044996634
20
25
30
0
11
48.708553044996634
21
10
31
0
0
LINE
5
266
100
AcDbEntity
8
0
100
AcDbLine
10
54.708553044996613
20
-15
30
0
11
54.708553044996613
21
0
31
0
0
LINE
5
267
100
AcDbEntity
8
0
100
AcDbLine
10
70.708553044996563
20
25
30
0
11
70.708553044996563
21
10
31
0
0
LINE
5
268
100
AcDbEntity
8
0
100
AcDbLine
10
40.708553044996663
20
25
30
0
11
40.708553044996663
21
10
31
0
0
LINE
5
269
100
AcDbEntity
8
0
100
AcDbLine
10
51.708553044996606
20
5
30
0
11
51.708553044996606
21
-10
31
0
0
LINE
5
270
100
AcDbEntity
8
0
100
AcDbLine
10
76.708553044996535
20
25
30
0
11
76.708553044996535
21
10
31
0
0
LINE
5
271
100
AcDbEntity
8
0
100
AcDbLine
10
67.708553044996563
20
5
30
0
11
67.708553044996563
21
20
31
0
0
LINE
5
272
100
AcDbEntity
8
0
100
AcDbLine
10
62.708553044996584
20
-15
30
0
11
62.708553044996584
21
0
31
0
0
LINE
5
273
100
AcDbEntity
8
0
100
AcDbLine
10
61.708553044996606
20
5
30
0
11
61.708553044996606
21
-10
31
0
0
LINE
5
274
100
AcDbEntity
8
0
100
AcDbLine
10
63.708553044996577
20
5
30
0
11
63.708553044996577
21
20
31
0
0
LINE
5
275
100
AcDbEntity
8
0
100
AcDbLine
10
40.708553044996663
20
-15
30
0
11
40.708553044996663
21
0
31
0
0
LINE
5
276
100
AcDbEntity
8
0
100
AcDbLine
10
39.708553044996663
20
5
30
0
11
39.708553044996663
21
20
31
0
0
LINE
5
277
100
AcDbEntity
8
0
100
AcDbLine
10
45.708553044996648
20
5
30
0
11
45.708553044996648
21
20
31
0
0
LINE
5
278
100
AcDbEntity
8
0
100
AcDbLine
10
49.708553044996648
20
5
30
0
11
49.708553044996648
21
-10
31
0
0
LINE
5
279
100
AcDbEntity
8
0
100
AcDbLine
10
59.708553044996577
20
5
30
0
11
59.708553044996577
21
-10
31
0
0
LINE
5
280
100
AcDbEntity
8
0
100
AcDbLine
10
69.708553044996577
20
5
30
0
11
69.708553044996577
21
-10
31
0
0
LINE
5
281
100
AcDbEntity
8
0
100
AcDbLine
10
74.708553044996535
20
-15
30
0
11
74.708553044996535
21
0
31
0
0
LINE
5
282
100
AcDbEntity
8
0
100
AcDbLine
10
72.708553044996549
20
-15
30
0
11
72.708553044996549
21
0
31
0
0
LINE
5
283
100
AcDbEntity
8
0
100
AcDbLine
10
67.708553044996549
20
5
30
0
11
67.708553044996549
21
-10
31
0
0
LINE
5
284
100
AcDbEntity
8
0
100
AcDbLine
10
72.708553044996549
20
25
30
0
11
72.708553044996549
21
10
31
0
0
LINE
5
285
100
AcDbEntity
8
0
100
AcDbLine
10
73.708553044996563
20
5
30
0
11
73.708553044996563
21
-10
31
0
0
LINE
5
286
100
AcDbEntity
8
0
100
AcDbLine
10
76.708553044996535
20
-15
30
0
11
76.708553044996535
21
0
31
0
0
LINE
5
287
100
AcDbEntity
8
0
100
AcDbLine
10
68.708553044996563
20
25
30
0
11
68.708553044996563
21
10
31
0
0
LINE
5
288
100
AcDbEntity
8
0
100
AcDbLine
10
71.708553044996535
20
5
30
0
11
71.708553044996535
21
-10
31
0
0
LINE
5
289
100
AcDbEntity
8
0
100
AcDbLine
10
64.708553044996577
20
-15
30
0
11
64.708553044996577
21
0
31
0
0
LINE
5
290
100
AcDbEntity
8
0
100
AcDbLine
10
61.708553044996592
20
5
30
0
11
61.708553044996592
21
20
31
0
0
LINE
5
291
100
AcDbEntity
8
0
100
AcDbLine
10
62.708553044996584
20
25
30
0
11
62.708553044996584
21
10
31
0
0
LINE
5
292
100
AcDbEntity
8
0
100
AcDbLine
10
64.708553044996577
20
25
30
0
11
64.708553044996577
21
10
31
0
0
LINE
5
293
100
AcDbEntity
8
0
100
AcDbLine
10
43.708553044996634
20
5
30
0
11
43.708553044996634
21
-10
31
0
0
LINE
5
294
100
AcDbEntity
8
0
100
AcDbLine
10
47.70855304499662
20
5
30
0
11
47.70855304499662
21
-10
31
0
0
LINE
5
295
100
AcDbEntity
8
0
100
AcDbLine
10
42.708553044996656
20
-15
30
0
11
42.708553044996656
21
0
31
0
0
LINE
5
296
100
AcDbEntity
8
0
100
AcDbLine
10
60.708553044996592
20
25
30
0
11
60.708553044996592
21
10
31
0
0
LINE
5
297
100
AcDbEntity
8
0
100
AcDbLine
10
45.708553044996663
20
5
30
0
11
45.708553044996663
21
-10
31
0
0
LINE
5
298
100
AcDbEntity
8
0
100
AcDbLine
10
47.708553044996634
20
5
30
0
11
47.708553044996634
21
20
31
0
0
LINE
5
299
100
AcDbEntity
8
0
100
AcDbLine
10
57.70855304499662
20
5
30
0
11
57.70855304499662
21
-10
31
0
0
LINE
5
300
100
AcDbEntity
8
0
100
AcDbLine
10
48.708553044996634
20
-15
30
0
11
48.708553044996634
21
0
31
0
0
LINE
5
301
100
AcDbEntity
8
0
100
AcDbLine
10
75.70855304499652
20
5
30
0
11
75.70855304499652
21
-10
31
0
0
LINE
5
302
100
AcDbEntity
8
0
100
AcDbLine
10
74.708553044996535
20
25
30
0
11
74.708553044996535
21
10
31
0
0
LINE
5
303
100
AcDbEntity
8
0
100
AcDbLine
10
71.708553044996549
20
5
30
0
11
71.708553044996549
21
20
31
0
0
LINE
5
304
100
AcDbEntity
8
0
100
AcDbLine
10
63.708553044996563
20
5
30
0
11
63.708553044996563
21
-10
31
0
0
LINE
5
305
100
AcDbEntity
8
0
100
AcDbLine
10
46.708553044996641
20
-15
30
0
11
46.708553044996641
21
0
31
0
0
LINE
5
306
100
AcDbEntity
8
0
100
AcDbLine
10
73.708553044996549
20
5
30
0
11
73.708553044996549
21
20
31
0
0
LINE
5
307
100
AcDbEntity
8
0
100
AcDbLine
10
66.708553044996563
20
25
30
0
11
66.708553044996563
21
10
31
0
0
LINE
5
308
100
AcDbEntity
8
0
100
AcDbLine
10
41.708553044996663
20
5
30
0
11
41.708553044996663
21
20
31
0
0
LINE
5
309
100
AcDbEntity
8
0
100
AcDbLine
10
65.708553044996592
20
5
30
0
11
65.708553044996592
21
-10
31
0
0
LINE
5
310
100
AcDbEntity
8
0
100
AcDbLine
10
66.708553044996563
20
-15
30
0
11
66.708553044996563
21
0
31
0
0
LINE
5
311
100
AcDbEntity
8
0
100
AcDbLine
10
75.708553044996535
20
5
30
0
11
75.708553044996535
21
20
31
0
0
LINE
5
312
100
AcDbEntity
8
0
100
AcDbLine
10
39.708553044996663
20
5
30
0
11
39.708553044996663
21
-10
31
0
0
LINE
5
313
100
AcDbEntity
8
0
100
AcDbLine
10
65.708553044996577
20
5
30
0
11
65.708553044996577
21
20
31
0
0
LINE
5
314
100
AcDbEntity
8
0
100
AcDbLine
10
44.708553044996648
20
25
30
0
11
44.708553044996648
21
10
31
0
0
LINE
5
315
100
AcDbEntity
8
0
100
AcDbLine
10
269.35427652249825
20
25.000000000000004
30
0
11
269.35427652249825
21
10.000000000000004
31
0
0
LINE
5
316
100
AcDbEntity
8
0
100
AcDbLine
10
268.35427652249825
20
5.0000000000000009
30
0
11
268.35427652249825
21
20
31
0
0
LINE
5
317
100
AcDbEntity
8
0
100
AcDbLine
10
267.35427652249825
20
25.000000000000004
30
0
11
267.35427652249825
21
10.000000000000004
31
0
0
LINE
5
318
100
AcDbEntity
8
0
100
AcDbLine
10
266.35427652249825
20
5
30
0
11
266.35427652249825
21
20
31
0
0
LINE
5
319
100
AcDbEntity
8
0
100
AcDbLine
10
265.35427652249825
20
25.000000000000004
30
0
11
265.35427652249825
21
10.000000000000004
31
0
0
LINE
5
320
100
AcDbEntity
8
0
100
AcDbLine
10
264.3542765224982
20
5
30
0
11
264.3542765224982
21
20
31
0
0
LINE
5
321
100
AcDbEntity
8
0
100
AcDbLine
10
263.3542765224982
20
25.000000000000004
30
0
11
263.3542765224982
21
10.000000000000004
31
0
0
LINE
5
322
100
AcDbEntity
8
0
100
AcDbLine
10
262.3542765224982
20
5
30
0
11
262.3542765224982
21
20
31
0
0
LINE
5
323
100
AcDbEntity
8
0
100
AcDbLine
10
261.35427652249814
20
25.000000000000004
30
0
11
261.35427652249814
21
10.000000000000004
31
0
0
LINE
5
324
100
AcDbEntity
8
0
100
AcDbLine
10
260.35427652249814
20
5
30
0
11
260.35427652249814
21
20
31
0
0
LINE
5
325
100
AcDbEntity
8
0
100
AcDbLine
10
259.35427652249814
20
25.000000000000004
30
0
11
259.35427652249814
21
10.000000000000004
31
0
0
LINE
5
326
100
AcDbEntity
8
0
100
AcDbLine
10
258.35427652249814
20
5
30
0
11
258.35427652249814
21
20
31
0
0
LINE
5
327
100
AcDbEntity
8
0
100
AcDbLine
10
257.35427652249814
20
25.000000000000004
30
0
11
257.35427652249814
21
10.000000000000004
31
0
0
LINE
5
328
100
AcDbEntity
8
0
100
AcDbLine
10
256.35427652249808
20
5
30
0
11
256.35427652249808
21
20
31
0
0
LINE
5
329
100
AcDbEntity
8
0
100
AcDbLine
10
255.35427652249808
20
25.000000000000004
30
0
11
255.35427652249808
21
10.000000000000004
31
0
0
LINE
5
330
100
AcDbEntity
8
0
100
AcDbLine
10
254.35427652249808
20
5
30
0
11
254.35427652249808
21
20
31
0
0
LINE
5
331
100
AcDbEntity
8
0
100
AcDbLine
10
253.35427652249805
20
25.000000000000004
30
0
11
253.35427652249805
21
10.000000000000004
31
0
0
LINE
5
332
100
AcDbEntity
8
0
100
AcDbLine
10
252.35427652249803
20
5
30
0
11
252.35427652249803
21
20
31
0
0
LINE
5
333
100
AcDbEntity
8
0
100
AcDbLine
10
251.35427652249803
20
25.000000000000004
30
0
11
251.35427652249803
21
10.000000000000004
31
0
0
LINE
5
334
100
AcDbEntity
8
0
100
AcDbLine
10
250.35427652249803
20
5
30
0
11
250.35427652249803
21
20
31
0
0
LINE
5
335
100
AcDbEntity
8
0
100
AcDbLine
10
249.354276522498
20
25.000000000000004
30
0
11
249.354276522498
21
10.000000000000004
31
0
0
LINE
5
336
100
AcDbEntity
8
0
100
AcDbLine
10
248.35427652249797
20
5
30
0
11
248.35427652249797
21
20
31
0
0
LINE
5
337
100
AcDbEntity
8
0
100
AcDbLine
10
247.35427652249797
20
25.000000000000004
30
0
11
247.35427652249797
21
10.000000000000004
31
0
0
LINE
5
338
100
AcDbEntity
8
0
100
AcDbLine
10
246.35427652249797
20
5
30
0
11
246.35427652249797
21
20
31
0
0
LINE
5
339
100
AcDbEntity
8
0
100
AcDbLine
10
245.35427652249794
20
25.000000000000004
30
0
11
245.35427652249794
21
10.000000000000004
31
0
0
LINE
5
340
100
AcDbEntity
8
0
100
AcDbLine
10
244.35427652249791
20
5
30
0
11
244.35427652249791
21
20
31
0
0
LINE
5
341
100
AcDbEntity
8
0
100
AcDbLine
10
243.35427652249791
20
25.000000000000004
30
0
11
243.35427652249791
21
10.000000000000004
31
0
0
LINE
5
342
100
AcDbEntity
8
0
100
AcDbLine
10
242.35427652249791
20
5
30
0
11
242.35427652249791
21
20
31
0
0
LINE
5
343
100
AcDbEntity
8
0
100
AcDbLine
10
241.35427652249788
20
25.000000000000004
30
0
11
241.35427652249788
21
10.000000000000004
31
0
0
LINE
5
344
100
AcDbEntity
8
0
100
AcDbLine
10
240.35427652249786
20
5
30
0
11
240.35427652249786
21
20
31
0
0
LINE
5
345
100
AcDbEntity
8
0
100
AcDbLine
10
239.35427652249786
20
25.000000000000004
30
0
11
239.35427652249786
21
10.000000000000004
31
0
0
LINE
5
346
100
AcDbEntity
8
0
100
AcDbLine
10
238.35427652249786
20
5
30
0
11
238.35427652249786
21
20
31
0
0
LINE
5
347
100
AcDbEntity
8
0
100
AcDbLine
10
237.35427652249783
20
25.000000000000004
30
0
11
237.35427652249783
21
10.000000000000004
31
0
0
LINE
5
348
100
AcDbEntity
8
0
100
AcDbLine
10
236.3542765224978
20
5
30
0
11
236.3542765224978
21
20
31
0
0
LINE
5
349
100
AcDbEntity
8
0
100
AcDbLine
10
235.3542765224978
20
25.000000000000004
30
0
11
235.3542765224978
21
10.000000000000004
31
0
0
LINE
5
350
100
AcDbEntity
8
0
100
AcDbLine
10
234.3542765224978
20
5
30
0
11
234.3542765224978
21
20
31
0
0
LINE
5
351
100
AcDbEntity
8
0
100
AcDbLine
10
233.35427652249777
20
25.000000000000004
30
0
11
233.35427652249777
21
10.000000000000004
31
0
0
LINE
5
352
100
AcDbEntity
8
0
100
AcDbLine
10
232.35427652249774
20
5
30
0
11
232.35427652249774
21
20
31
0
0
LINE
5
353
100
AcDbEntity
8
0
100
AcDbLine
10
262.3542765224982
20
5
30
0
11
262.3542765224982
21
-10
31
0
0
LINE
5
354
100
AcDbEntity
8
0
100
AcDbLine
10
268.35427652249825
20
4.9999999999999991
30
0
11
268.35427652249825
21
-10
31
0
0
LINE
5
355
100
AcDbEntity
8
0
100
AcDbLine
10
266.35427652249825
20
5
30
0
11
266.35427652249825
21
-10
31
0
0
LINE
5
356
100
AcDbEntity
8
0
100
AcDbLine
10
261.35427652249814
20
-15.000000000000004
30
0
11
261.35427652249814
21
-4.4408920985006262e-15
31
0
0
LINE
5
357
100
AcDbEntity
8
0
100
AcDbLine
10
263.3542765224982
20
-15.000000000000004
30
0
11
263.3542765224982
21
-4.4408920985006262e-15
31
0
0
LINE
5
358
100
AcDbEntity
8
0
100
AcDbLine
10
269.35427652249825
20
-15.000000000000004
30
0
11
269.35427652249825
21
-4.4408920985006262e-15
31
0
0
LINE
5
359
100
AcDbEntity
8
0
100
AcDbLine
10
260.35427652249814
20
5
30
0
11
260.35427652249814
21
-10
31
0
0
LINE
5
360
100
AcDbEntity
8
0
100
AcDbLine
10
264.3542765224982
20
5
30
0
11
264.3542765224982
21
-10
31
0
0
LINE
5
361
100
AcDbEntity
8
0
100
AcDbLine
10
267.35427652249825
20
-15.000000000000004
30
0
11
267.35427652249825
21
-4.4408920985006262e-15
31
0
0
LINE
5
362
100
AcDbEntity
8
0
100
AcDbLine
10
265.35427652249825
20
-15.000000000000004
30
0
11
265.35427652249825
21
-4.4408920985006262e-15
31
0
0
LINE
5
363
100
AcDbEntity
8
0
100
AcDbLine
10
259.35427652249814
20
-15.000000000000004
30
0
11
259.35427652249814
21
-4.4408920985006262e-15
31
0
0
LINE
5
364
100
AcDbEntity
8
0
100
AcDbLine
10
235.3542765224978
20
-15.000000000000004
30
0
11
235.3542765224978
21
-4.4408920985006262e-15
31
0
0
LINE
5
365
100
AcDbEntity
8
0
100
AcDbLine
10
243.35427652249791
20
-15.000000000000004
30
0
11
243.35427652249791
21
-4.4408920985006262e-15
31
0
0
LINE
5
366
100
AcDbEntity
8
0
100
AcDbLine
10
251.35427652249803
20
-15.000000000000004
30
0
11
251.35427652249803
21
-4.4408920985006262e-15
31
0
0
LINE
5
367
100
AcDbEntity
8
0
100
AcDbLine
10
246.35427652249797
20
5
30
0
11
246.35427652249797
21
-10
31
0
0
LINE
5
368
100
AcDbEntity
8
0
100
AcDbLine
10
244.35427652249791
20
5
30
0
11
244.35427652249791
21
-10
31
0
0
LINE
5
369
100
AcDbEntity
8
0
100
AcDbLine
10
236.3542765224978
20
5
30
0
11
236.3542765224978
21
-10
31
0
0
LINE
5
370
100
AcDbEntity
8
0
100
AcDbLine
10
254.35427652249808
20
5
30
0
11
254.35427652249808
21
-10
31
0
0
LINE
5
371
100
AcDbEntity
8
0
100
AcDbLine
10
233.35427652249777
20
-15.000000000000004
30
0
11
233.35427652249777
21
-4.4408920985006262e-15
31
0
0
LINE
5
372
100
AcDbEntity
8
0
100
AcDbLine
10
240.35427652249786
20
5
30
0
11
240.35427652249786
21
-10
31
0
0
LINE
5
373
100
AcDbEntity
8
0
100
AcDbLine
10
238.35427652249786
20
5
30
0
11
238.35427652249786
21
-10
31
0
0
LINE
5
374
100
AcDbEntity
8
0
100
AcDbLine
10
255.35427652249808
20
-15.000000000000004
30
0
11
255.35427652249808
21
-4.4408920985006262e-15
31
0
0
LINE
5
375
100
AcDbEntity
8
0
100
AcDbLine
10
258.35427652249814
20
5
30
0
11
258.35427652249814
21
-10
31
0
0
LINE
5
376
100
AcDbEntity
8
0
100
AcDbLine
10
253.35427652249805
20
-15.000000000000004
30
0
11
253.35427652249805
21
-4.4408920985006262e-15
31
0
0
LINE
5
377
100
AcDbEntity
8
0
100
AcDbLine
10
252.35427652249803
20
5
30
0
11
252.35427652249803
21
-10
31
0
0
LINE
5
378
100
AcDbEntity
8
0
100
AcDbLine
10
249.354276522498
20
-15.000000000000004
30
0
11
249.354276522498
21
-4.4408920985006262e-15
31
0
0
LINE
5
379
100
AcDbEntity
8
0
100
AcDbLine
10
247.35427652249797
20
-15.000000000000004
30
0
11
247.35427652249797
21
-4.4408920985006262e-15
31
0
0
LINE
5
380
100
AcDbEntity
8
0
100
AcDbLine
10
257.35427652249814
20
-15.000000000000004
30
0
11
257.35427652249814
21
-4.4408920985006262e-15
31
0
0
LINE
5
381
100
AcDbEntity
8
0
100
AcDbLine
10
248.35427652249797
20
5
30
0
11
248.35427652249797
21
-10
31
0
0
LINE
5
382
100
AcDbEntity
8
0
100
AcDbLine
10
245.35427652249794
20
-15.000000000000004
30
0
11
245.35427652249794
21
-4.4408920985006262e-15
31
0
0
LINE
5
383
100
AcDbEntity
8
0
100
AcDbLine
10
237.35427652249783
20
-15.000000000000004
30
0
11
237.35427652249783
21
-4.4408920985006262e-15
31
0
0
LINE
5
384
100
AcDbEntity
8
0
100
AcDbLine
10
256.35427652249808
20
5
30
0
11
256.35427652249808
21
-10
31
0
0
LINE
5
385
100
AcDbEntity
8
0
100
AcDbLine
10
241.35427652249788
20
-15.000000000000004
30
0
11
241.35427652249788
21
-4.4408920985006262e-15
31
0
0
LINE
5
386
100
AcDbEntity
8
0
100
AcDbLine
10
242.35427652249791
20
5
30
0
11
242.35427652249791
21
-10
31
0
0
LINE
5
387
100
AcDbEntity
8
0
100
AcDbLine
10
232.35427652249774
20
5
30
0
11
232.35427652249774
21
-10
31
0
0
LINE
5
388
100
AcDbEntity
8
0
100
AcDbLine
10
239.35427652249786
20
-15.000000000000004
30
0
11
239.35427652249786
21
-4.4408920985006262e-15
31
0
0
LINE
5
389
100
AcDbEntity
8
0
100
AcDbLine
10
234.3542765224978
20
5
30
0
11
234.3542765224978
21
-10
31
0
0
LINE
5
390
100
AcDbEntity
8
0
100
AcDbLine
10
250.35427652249803
20
5
30
0
11
250.35427652249803
21
-10
31
0
0
LINE
5
391
100
AcDbEntity
8
0
100
AcDbLine
10
-82.645723477502244
20
5
30
0
11
-82.645723477502244
21
20
31
0
0
LINE
5
392
100
AcDbEntity
8
0
100
AcDbLine
10
-81.64572347750223
20
25.000000000000004
30
0
11
-81.64572347750223
21
10.000000000000004
31
0
0
LINE
5
393
100
AcDbEntity
8
0
100
AcDbLine
10
-80.645723477502216
20
5
30
0
11
-80.645723477502216
21
20
31
0
0
LINE
5
394
100
AcDbEntity
8
0
100
AcDbLine
10
-79.645723477502202
20
25.000000000000004
30
0
11
-79.645723477502202
21
10.000000000000004
31
0
0
LINE
5
395
100
AcDbEntity
8
0
100
AcDbLine
10
-78.645723477502187
20
5
30
0
11
-78.645723477502187
21
20
31
0
0
LINE
5
396
100
AcDbEntity
8
0
100
AcDbLine
10
-77.645723477502173
20
25.000000000000004
30
0
11
-77.645723477502173
21
10.000000000000004
31
0
0
LINE
5
397
100
AcDbEntity
8
0
100
AcDbLine
10
-76.645723477502159
20
5
30
0
11
-76.645723477502159
21
20
31
0
0
LINE
5
398
100
AcDbEntity
8
0
100
AcDbLine
10
-75.645723477502145
20
25.000000000000004
30
0
11
-75.645723477502145
21
10.000000000000004
31
0
0
LINE
5
399
100
AcDbEntity
8
0
100
AcDbLine
10
-74.645723477502131
20
5
30
0
11
-74.645723477502131
21
20
31
0
0
LINE
5
400
100
AcDbEntity
8
0
100
AcDbLine
10
-73.645723477502116
20
25.000000000000004
30
0
11
-73.645723477502116
21
10.000000000000004
31
0
0
LINE
5
401
100
AcDbEntity
8
0
100
AcDbLine
10
-72.645723477502102
20
5
30
0
11
-72.645723477502102
21
20
31
0
0
LINE
5
402
100
AcDbEntity
8
0
100
AcDbLine
10
-71.645723477502088
20
25.000000000000004
30
0
11
-71.645723477502088
21
10.000000000000004
31
0
0
LINE
5
403
100
AcDbEntity
8
0
100
AcDbLine
10
-70.645723477502074
20
5
30
0
11
-70.645723477502074
21
20
31
0
0
LINE
5
404
100
AcDbEntity
8
0
100
AcDbLine
10
-69.645723477502059
20
25.000000000000004
30
0
11
-69.645723477502059
21
10.000000000000004
31
0
0
LINE
5
405
100
AcDbEntity
8
0
100
AcDbLine
10
-68.645723477502045
20
5
30
0
11
-68.645723477502045
21
20
31
0
0
LINE
5
406
100
AcDbEntity
8
0
100
AcDbLine
10
-67.645723477502031
20
25.000000000000004
30
0
11
-67.645723477502031
21
10.000000000000004
31
0
0
LINE
5
407
100
AcDbEntity
8
0
100
AcDbLine
10
-66.645723477502017
20
5
30
0
11
-66.645723477502017
21
20
31
0
0
LINE
5
408
100
AcDbEntity
8
0
100
AcDbLine
10
-65.645723477502003
20
25.000000000000004
30
0
11
-65.645723477502003
21
10.000000000000004
31
0
0
LINE
5
409
100
AcDbEntity
8
0
100
AcDbLine
10
-64.645723477501988
20
5
30
0
11
-64.645723477501988
21
20
31
0
0
LINE
5
410
100
AcDbEntity
8
0
100
AcDbLine
10
-63.645723477501974
20
25.000000000000004
30
0
11
-63.645723477501974
21
10.000000000000004
31
0
0
LINE
5
411
100
AcDbEntity
8
0
100
AcDbLine
10
-62.64572347750196
20
5
30
0
11
-62.64572347750196
21
20
31
0
0
LINE
5
412
100
AcDbEntity
8
0
100
AcDbLine
10
-61.645723477501946
20
25.000000000000004
30
0
11
-61.645723477501946
21
10.000000000000004
31
0
0
LINE
5
413
100
AcDbEntity
8
0
100
AcDbLine
10
-60.645723477501932
20
5
30
0
11
-60.645723477501932
21
20
31
0
0
LINE
5
414
100
AcDbEntity
8
0
100
AcDbLine
10
-59.645723477501917
20
25.000000000000004
30
0
11
-59.645723477501917
21
10.000000000000004
31
0
0
LINE
5
415
100
AcDbEntity
8
0
100
AcDbLine
10
-58.645723477501903
20
5
30
0
11
-58.645723477501903
21
20
31
0
0
LINE
5
416
100
AcDbEntity
8
0
100
AcDbLine
10
-57.645723477501889
20
25.000000000000004
30
0
11
-57.645723477501889
21
10.000000000000004
31
0
0
LINE
5
417
100
AcDbEntity
8
0
100
AcDbLine
10
-56.645723477501875
20
5
30
0
11
-56.645723477501875
21
20
31
0
0
LINE
5
418
100
AcDbEntity
8
0
100
AcDbLine
10
-55.645723477501861
20
25.000000000000004
30
0
11
-55.645723477501861
21
10.000000000000004
31
0
0
LINE
5
419
100
AcDbEntity
8
0
100
AcDbLine
10
-54.645723477501846
20
5
30
0
11
-54.645723477501846
21
20
31
0
0
LINE
5
420
100
AcDbEntity
8
0
100
AcDbLine
10
-53.645723477501832
20
25.000000000000004
30
0
11
-53.645723477501832
21
10.000000000000004
31
0
0
LINE
5
421
100
AcDbEntity
8
0
100
AcDbLine
10
-52.645723477501818
20
5
30
0
11
-52.645723477501818
21
20
31
0
0
LINE
5
422
100
AcDbEntity
8
0
100
AcDbLine
10
-51.645723477501804
20
25.000000000000004
30
0
11
-51.645723477501804
21
10.000000000000004
31
0
0
LINE
5
423
100
AcDbEntity
8
0
100
AcDbLine
10
-50.645723477501789
20
5
30
0
11
-50.645723477501789
21
20
31
0
0
LINE
5
424
100
AcDbEntity
8
0
100
AcDbLine
10
-49.645723477501775
20
25.000000000000004
30
0
11
-49.645723477501775
21
10.000000000000004
31
0
0
LINE
5
425
100
AcDbEntity
8
0
100
AcDbLine
10
-48.645723477501761
20
5
30
0
11
-48.645723477501761
21
20
31
0
0
LINE
5
426
100
AcDbEntity
8
0
100
AcDbLine
10
-47.645723477501747
20
25.000000000000004
30
0
11
-47.645723477501747
21
10.000000000000004
31
0
0
LINE
5
427
100
AcDbEntity
8
0
100
AcDbLine
10
-46.645723477501733
20
5
30
0
11
-46.645723477501733
21
20
31
0
0
LINE
5
428
100
AcDbEntity
8
0
100
AcDbLine
10
-78.645723477502187
20
5
30
0
11
-78.645723477502187
21
-10
31
0
0
LINE
5
429
100
AcDbEntity
8
0
100
AcDbLine
10
-77.645723477502173
20
-15.000000000000004
30
0
11
-77.645723477502173
21
-4.4408920985006262e-15
31
0
0
LINE
5
430
100
AcDbEntity
8
0
100
AcDbLine
10
-62.64572347750196
20
5
30
0
11
-62.64572347750196
21
-10
31
0
0
LINE
5
431
100
AcDbEntity
8
0
100
AcDbLine
10
-63.645723477501974
20
-15.000000000000004
30
0
11
-63.645723477501974
21
-4.4408920985006262e-15
31
0
0
LINE
5
432
100
AcDbEntity
8
0
100
AcDbLine
10
-76.645723477502159
20
5
30
0
11
-76.645723477502159
21
-10
31
0
0
LINE
5
433
100
AcDbEntity
8
0
100
AcDbLine
10
-57.645723477501889
20
-15.000000000000004
30
0
11
-57.645723477501889
21
-4.4408920985006262e-15
31
0
0
LINE
5
434
100
AcDbEntity
8
0
100
AcDbLine
10
-58.645723477501903
20
5
30
0
11
-58.645723477501903
21
-10
31
0
0
LINE
5
435
100
AcDbEntity
8
0
100
AcDbLine
10
-82.645723477502244
20
5
30
0
11
-82.645723477502244
21
-10
31
0
0
LINE
5
436
100
AcDbEntity
8
0
100
AcDbLine
10
-81.64572347750223
20
-15.000000000000004
30
0
11
-81.64572347750223
21
-4.4408920985006262e-15
31
0
0
LINE
5
437
100
AcDbEntity
8
0
100
AcDbLine
10
-80.645723477502216
20
5
30
0
11
-80.645723477502216
21
-10
31
0
0
LINE
5
438
100
AcDbEntity
8
0
100
AcDbLine
10
-56.645723477501875
20
5
30
0
11
-56.645723477501875
21
-10
31
0
0
LINE
5
439
100
AcDbEntity
8
0
100
AcDbLine
10
-79.645723477502202
20
-15.000000000000004
30
0
11
-79.645723477502202
21
-4.4408920985006262e-15
31
0
0
LINE
5
440
100
AcDbEntity
8
0
100
AcDbLine
10
-61.645723477501946
20
-15.000000000000004
30
0
11
-61.645723477501946
21
-4.4408920985006262e-15
31
0
0
LINE
5
441
100
AcDbEntity
8
0
100
AcDbLine
10
-60.645723477501932
20
5
30
0
11
-60.645723477501932
21
-10
31
0
0
LINE
5
442
100
AcDbEntity
8
0
100
AcDbLine
10
-59.645723477501917
20
-15.000000000000004
30
0
11
-59.645723477501917
21
-4.4408920985006262e-15
31
0
0
LINE
5
443
100
AcDbEntity
8
0
100
AcDbLine
10
-55.645723477501861
20
-15.000000000000004
30
0
11
-55.645723477501861
21
-4.4408920985006262e-15
31
0
0
LINE
5
444
100
AcDbEntity
8
0
100
AcDbLine
10
-64.645723477501988
20
5
30
0
11
-64.645723477501988
21
-10
31
0
0
LINE
5
445
100
AcDbEntity
8
0
100
AcDbLine
10
-71.645723477502088
20
-15.000000000000004
30
0
11
-71.645723477502088
21
-4.4408920985006262e-15
31
0
0
LINE
5
446
100
AcDbEntity
8
0
100
AcDbLine
10
-72.645723477502102
20
5
30
0
11
-72.645723477502102
21
-10
31
0
0
LINE
5
447
100
AcDbEntity
8
0
100
AcDbLine
10
-67.645723477502031
20
-15.000000000000004
30
0
11
-67.645723477502031
21
-4.4408920985006262e-15
31
0
0
LINE
5
448
100
AcDbEntity
8
0
100
AcDbLine
10
-70.645723477502074
20
5
30
0
11
-70.645723477502074
21
-10
31
0
0
LINE
5
449
100
AcDbEntity
8
0
100
AcDbLine
10
-74.645723477502131
20
5
30
0
11
-74.645723477502131
21
-10
31
0
0
LINE
5
450
100
AcDbEntity
8
0
100
AcDbLine
10
-50.645723477501789
20
5
30
0
11
-50.645723477501789
21
-10
31
0
0
LINE
5
451
100
AcDbEntity
8
0
100
AcDbLine
10
-69.645723477502059
20
-15.000000000000004
30
0
11
-69.645723477502059
21
-4.4408920985006262e-15
31
0
0
LINE
5
452
100
AcDbEntity
8
0
100
AcDbLine
10
-68.645723477502045
20
5
30
0
11
-68.645723477502045
21
-10
31
0
0
LINE
5
453
100
AcDbEntity
8
0
100
AcDbLine
10
-53.645723477501832
20
-15.000000000000004
30
0
11
-53.645723477501832
21
-4.4408920985006262e-15
31
0
0
LINE
5
454
100
AcDbEntity
8
0
100
AcDbLine
10
-54.645723477501846
20
5
30
0
11
-54.645723477501846
21
-10
31
0
0
LINE
5
455
100
AcDbEntity
8
0
100
AcDbLine
10
-65.645723477502003
20
-15.000000000000004
30
0
11
-65.645723477502003
21
-4.4408920985006262e-15
31
0
0
LINE
5
456
100
AcDbEntity
8
0
100
AcDbLine
10
-48.645723477501761
20
5
30
0
11
-48.645723477501761
21
-10
31
0
0
LINE
5
457
100
AcDbEntity
8
0
100
AcDbLine
10
-49.645723477501775
20
-15.000000000000004
30
0
11
-49.645723477501775
21
-4.4408920985006262e-15
31
0
0
LINE
5
458
100
AcDbEntity
8
0
100
AcDbLine
10
-47.645723477501747
20
-15.000000000000004
30
0
11
-47.645723477501747
21
-4.4408920985006262e-15
31
0
0
LINE
5
459
100
AcDbEntity
8
0
100
AcDbLine
10
-52.645723477501818
20
5
30
0
11
-52.645723477501818
21
-10
31
0
0
LINE
5
460
100
AcDbEntity
8
0
100
AcDbLine
10
-75.645723477502145
20
-15.000000000000004
30
0
11
-75.645723477502145
21
-4.4408920985006262e-15
31
0
0
LINE
5
461
100
AcDbEntity
8
0
100
AcDbLine
10
-51.645723477501804
20
-15.000000000000004
30
0
11
-51.645723477501804
21
-4.4408920985006262e-15
31
0
0
LINE
5
462
100
AcDbEntity
8
0
100
AcDbLine
10
-46.645723477501733
20
5
30
0
11
-46.645723477501733
21
-10
31
0
0
LINE
5
463
100
AcDbEntity
8
0
100
AcDbLine
10
-73.645723477502116
20
-15.000000000000004
30
0
11
-73.645723477502116
21
-4.4408920985006262e-15
31
0
0
LINE
5
464
100
AcDbEntity
8
0
100
AcDbLine
10
-66.645723477502017
20
5
30
0
11
-66.645723477502017
21
-10
31
0
0
ENDSEC
0
SECTION
2
OBJECTS
0
DICTIONARY
5
C
100
AcDbDictionary
3
ACAD_GROUP
350
D
3
ACAD_MLINESTYLE
350
17
0
DICTIONARY
5
D
100
AcDbDictionary
0
DICTIONARY
5
1A
330
C
100
AcDbDictionary
0
DICTIONARY
5
17
100
AcDbDictionary
0
ENDSEC
0
EOF
